<svg width="23" height="22" viewBox="0 0 23 22" fill="none" xmlns="http://www.w3.org/2000/svg">
<path d="M16.4647 1.93634C16.7274 1.67369 17.0392 1.46535 17.3823 1.32321C17.7255 1.18107 18.0933 1.10791 18.4647 1.10791C18.8362 1.10791 19.204 1.18107 19.5471 1.32321C19.8903 1.46535 20.2021 1.67369 20.4647 1.93634C20.7274 2.19898 20.9357 2.51078 21.0778 2.85395C21.22 3.19711 21.2931 3.5649 21.2931 3.93634C21.2931 4.30777 21.22 4.67557 21.0778 5.01873C20.9357 5.36189 20.7274 5.67369 20.4647 5.93634L6.96472 19.4363L1.46472 20.9363L2.96472 15.4363L16.4647 1.93634Z" stroke="white" stroke-width="1.7" stroke-linecap="round" stroke-linejoin="round"/>
</svg>
